# xmcd
#
# Track frame offsets:
#	150
#	19238
#	40858
#	46555
#	72630
#	87015
#	95220
#	109908
#	125700
#	146033
#	162313
#	168545
#	197330
#	208478
#	220875
#	246775
#	257590
#	273398
#	286965
#	296928
#	301520
#	312125
#	322388
#
# Disc length: 4503 seconds
#
# Revision: 0
# Processed by: cddbd v1.5.1PL0 Copyright (c) Steve Scherf et al.
# Submitted via: audiograbber 1.83.01
#
DISCID=68119517
DTITLE=Karel Kryl - To nejlepsi
DYEAR=1993
DGENRE=Folk
TTITLE0=Kral a klaun
TTITLE1=Velicenstvo kat
TTITLE2=Tak vas tu mame
TTITLE3=Divny knize
TTITLE4=Andel
TTITLE5=Hle, jak se perou
TTITLE6=Morituri te salutant
TTITLE7=Ukolebavka
TTITLE8=Nevidoma divka
TTITLE9=Lasko!
TTITLE10=Pochod Gustapa
TTITLE11=Tekute pisky
TTITLE12=Sametove jaro
TTITLE13=Pisen neznameho vojina
TTITLE14=Rakovina
TTITLE15=Maskary
TTITLE16=Marat ve vane
TTITLE17=Bludny Holandan
TTITLE18=Zari
TTITLE19=Co reknou
TTITLE20=Habet
TTITLE21=Bratricku, zavirej vratka
TTITLE22=Dekuji
EXTD=ID3G: 80
EXTT0=
EXTT1=
EXTT2=
EXTT3=
EXTT4=
EXTT5=
EXTT6=
EXTT7=
EXTT8=
EXTT9=
EXTT10=
EXTT11=
EXTT12=
EXTT13=
EXTT14=
EXTT15=
EXTT16=
EXTT17=
EXTT18=
EXTT19=
EXTT20=
EXTT21=
EXTT22=
PLAYORDER=
